<svg xmlns="http://www.w3.org/2000/svg" width="40.045" height="40.045" viewBox="0 0 40.045 40.045">
  <g id="voice" transform="translate(-0.001)">
    <path id="Path_1" data-name="Path 1" d="M0,14.352a18.031,18.031,0,0,0,3.665,11.63c.914,1.32,1.575,2.274,1.575,3.5v9.386a1.173,1.173,0,0,0,1.173,1.173H20.962a1.173,1.173,0,0,0,1.173-1.173V36.526h5.4a1.173,1.173,0,0,0,1.173-1.173v-3.52a1.173,1.173,0,0,0-.519-.974c-.436-.3-1.045-.944-1.045-1.372,0-.468.692-1.135,1.045-1.372a1.173,1.173,0,0,0,.519-.974V24.794h1.956a1.173,1.173,0,0,0,1.087-1.615l-3.043-7.492V14.352a14.352,14.352,0,1,0-28.7,0Zm2.346,0a12.006,12.006,0,0,1,24.012,0v1.564a1.172,1.172,0,0,0,.086.441l2.473,6.089H27.532a1.173,1.173,0,0,0-1.173,1.173v2.951a4.121,4.121,0,0,0-1.564,2.915A4.121,4.121,0,0,0,26.359,32.4V34.18h-5.4a1.173,1.173,0,0,0-1.173,1.173V37.7H7.587V29.486c0-1.964-.968-3.361-1.992-4.84A15.778,15.778,0,0,1,2.347,14.352Z" transform="translate(0 0)" fill="#fff"/>
    <path id="Path_2" data-name="Path 2" d="M472.6,310.288a1.173,1.173,0,0,1,1.526.651,12.161,12.161,0,0,1,0,9.068,1.173,1.173,0,0,1-2.177-.875,9.812,9.812,0,0,0,0-7.318A1.173,1.173,0,0,1,472.6,310.288Z" transform="translate(-434.958 -285.941)" fill="#fff"/>
    <path id="Path_3" data-name="Path 3" d="M416.931,332.666a1.173,1.173,0,0,1,1.526.651,7.469,7.469,0,0,1,0,5.568,1.173,1.173,0,0,1-2.177-.875,5.122,5.122,0,0,0,0-3.818A1.173,1.173,0,0,1,416.931,332.666Z" transform="translate(-383.642 -306.569)" fill="#fff"/>
  </g>
</svg>
