<svg xmlns="http://www.w3.org/2000/svg" width="40.036" height="40.036" viewBox="0 0 40.036 40.036">
  <g id="technology" transform="translate(-1 -1)">
    <path id="Path_12" data-name="Path 12" d="M14,27.978a4.526,4.526,0,0,0,4.52,4.52h15.5a4.52,4.52,0,0,0,0-9.04,4.392,4.392,0,0,0-.752.065A7.743,7.743,0,0,0,17.98,23.49,4.527,4.527,0,0,0,14,27.978Zm4.514-3.228h0l.624.036.056-.622a6.451,6.451,0,0,1,12.865.21l.05.863.814-.293a3.227,3.227,0,1,1,1.094,6.262H18.52a3.228,3.228,0,0,1-.006-6.457Z" transform="translate(-4.605 -5.668)" fill="#fff"/>
    <path id="Path_13" data-name="Path 13" d="M29.166,22.291V21A5.172,5.172,0,0,0,24,26.166h1.291A3.878,3.878,0,0,1,29.166,22.291Z" transform="translate(-8.148 -7.085)" fill="#fff"/>
    <path id="Path_14" data-name="Path 14" d="M29,32.937A1.937,1.937,0,1,0,30.937,31,1.94,1.94,0,0,0,29,32.937Zm2.583,0a.646.646,0,1,1-.646-.646A.646.646,0,0,1,31.583,32.937Z" transform="translate(-9.919 -10.628)" fill="#fff"/>
    <path id="Path_15" data-name="Path 15" d="M22.937,34.874A1.937,1.937,0,1,0,21,32.937,1.94,1.94,0,0,0,22.937,34.874Zm0-2.583a.646.646,0,1,1-.646.646A.646.646,0,0,1,22.937,32.291Z" transform="translate(-7.085 -10.628)" fill="#fff"/>
    <path id="Path_16" data-name="Path 16" d="M38.937,34.874A1.937,1.937,0,1,0,37,32.937,1.94,1.94,0,0,0,38.937,34.874Zm0-2.583a.646.646,0,1,1-.646.646A.646.646,0,0,1,38.937,32.291Z" transform="translate(-12.753 -10.628)" fill="#fff"/>
    <path id="Path_17" data-name="Path 17" d="M33.354,8l.913-.913a7.112,7.112,0,0,0-10.046,0L25.134,8A5.818,5.818,0,0,1,33.354,8Z" transform="translate(-8.226 -1.419)" fill="#fff"/>
    <path id="Path_18" data-name="Path 18" d="M33.443,10.324a4.519,4.519,0,0,0-6.393,0l.913.913a3.229,3.229,0,0,1,4.567,0Z" transform="translate(-9.229 -2.834)" fill="#fff"/>
    <path id="Path_19" data-name="Path 19" d="M29.878,13.578l.914.913a.659.659,0,0,1,.912,0l.914-.913a1.984,1.984,0,0,0-2.74,0Z" transform="translate(-10.23 -4.262)" fill="#fff"/>
    <path id="Path_20" data-name="Path 20" d="M24.222,48.082l.913.913a5.818,5.818,0,0,1,8.22,0l.913-.913A7.112,7.112,0,0,0,24.222,48.082Z" transform="translate(-8.227 -15.944)" fill="#fff"/>
    <path id="Path_21" data-name="Path 21" d="M27.05,51.324l.913.913a3.229,3.229,0,0,1,4.567,0l.913-.913a4.519,4.519,0,0,0-6.393,0Z" transform="translate(-9.229 -17.359)" fill="#fff"/>
    <path id="Path_22" data-name="Path 22" d="M29.878,54.578l.914.913a.659.659,0,0,1,.912,0l.914-.913a1.984,1.984,0,0,0-2.74,0Z" transform="translate(-10.23 -18.786)" fill="#fff"/>
    <path id="Path_23" data-name="Path 23" d="M1.222,25.082,2.135,26a5.818,5.818,0,0,1,8.22,0l.913-.913a7.112,7.112,0,0,0-10.046,0Z" transform="translate(-0.079 -7.796)" fill="#fff"/>
    <path id="Path_24" data-name="Path 24" d="M10.443,28.324a4.519,4.519,0,0,0-6.393,0l.913.913a3.229,3.229,0,0,1,4.567,0Z" transform="translate(-1.08 -9.211)" fill="#fff"/>
    <path id="Path_25" data-name="Path 25" d="M6.878,31.578l.914.913a.659.659,0,0,1,.912,0l.914-.913a1.984,1.984,0,0,0-2.74,0Z" transform="translate(-2.082 -10.638)" fill="#fff"/>
    <path id="Path_26" data-name="Path 26" d="M57.267,25.082a7.112,7.112,0,0,0-10.046,0l.913.913a5.818,5.818,0,0,1,8.22,0Z" transform="translate(-16.374 -7.796)" fill="#fff"/>
    <path id="Path_27" data-name="Path 27" d="M56.443,28.324a4.519,4.519,0,0,0-6.393,0l.913.913a3.229,3.229,0,0,1,4.567,0Z" transform="translate(-17.377 -9.211)" fill="#fff"/>
    <path id="Path_28" data-name="Path 28" d="M52.878,31.578l.914.913a.659.659,0,0,1,.912,0l.914-.913A1.984,1.984,0,0,0,52.878,31.578Z" transform="translate(-18.378 -10.638)" fill="#fff"/>
    <path id="Path_29" data-name="Path 29" d="M53.978,1h-9.04A1.94,1.94,0,0,0,43,2.937V9.395a1.94,1.94,0,0,0,1.937,1.937h1.937v1.291H45.583v1.291h7.749V12.623H52.04V11.332h1.937a1.94,1.94,0,0,0,1.937-1.937V2.937A1.94,1.94,0,0,0,53.978,1Zm-9.04,1.291h9.04a.646.646,0,0,1,.646.646v4.52H44.291V2.937A.646.646,0,0,1,44.937,2.291Zm5.812,10.332H48.166V11.332h2.583Zm3.229-2.583h-9.04a.646.646,0,0,1-.646-.646V8.749H54.623v.646A.646.646,0,0,1,53.978,10.04Z" transform="translate(-14.879)" fill="#fff"/>
    <path id="Path_30" data-name="Path 30" d="M2.937,13.915H8.1a1.94,1.94,0,0,0,1.937-1.937V2.937A1.94,1.94,0,0,0,8.1,1H2.937A1.94,1.94,0,0,0,1,2.937v9.04A1.94,1.94,0,0,0,2.937,13.915ZM8.1,12.623H2.937a.646.646,0,0,1-.646-.646v-.646H8.749v.646A.646.646,0,0,1,8.1,12.623ZM2.291,10.04V4.874H8.749V10.04Zm.646-7.749H8.1a.646.646,0,0,1,.646.646v.646H2.291V2.937A.646.646,0,0,1,2.937,2.291Z" fill="#fff"/>
    <path id="Path_31" data-name="Path 31" d="M54.686,43H46.937A1.94,1.94,0,0,0,45,44.937v1.291a1.925,1.925,0,0,0,.5,1.291,1.922,1.922,0,0,0-.5,1.291V50.1a1.925,1.925,0,0,0,.5,1.291,1.922,1.922,0,0,0-.5,1.291v1.291a1.94,1.94,0,0,0,1.937,1.937h7.749a1.94,1.94,0,0,0,1.937-1.937V52.686a1.925,1.925,0,0,0-.5-1.291,1.922,1.922,0,0,0,.5-1.291V48.812a1.925,1.925,0,0,0-.5-1.291,1.922,1.922,0,0,0,.5-1.291V44.937A1.94,1.94,0,0,0,54.686,43Zm-8.395,1.937a.646.646,0,0,1,.646-.646h7.749a.646.646,0,0,1,.646.646v1.291a.646.646,0,0,1-.646.646H46.937a.646.646,0,0,1-.646-.646Zm9.04,3.874V50.1a.646.646,0,0,1-.646.646H46.937a.646.646,0,0,1-.646-.646V48.812a.646.646,0,0,1,.646-.646h7.749A.646.646,0,0,1,55.332,48.812Zm0,5.166a.646.646,0,0,1-.646.646H46.937a.646.646,0,0,1-.646-.646V52.686a.646.646,0,0,1,.646-.646h7.749a.646.646,0,0,1,.646.646Z" transform="translate(-15.588 -14.879)" fill="#fff"/>
    <path id="Path_32" data-name="Path 32" d="M15.206,52.04v-7.1A1.94,1.94,0,0,0,13.269,43H4.229a1.94,1.94,0,0,0-1.937,1.937v7.1A1.293,1.293,0,0,0,1,53.332a2.586,2.586,0,0,0,2.583,2.583H13.915A2.586,2.586,0,0,0,16.5,53.332,1.293,1.293,0,0,0,15.206,52.04Zm-11.623-7.1a.646.646,0,0,1,.646-.646h9.04a.646.646,0,0,1,.646.646v7.1H3.583Zm10.332,9.686H3.583a1.293,1.293,0,0,1-1.291-1.291H15.206A1.293,1.293,0,0,1,13.915,54.623Z" transform="translate(0 -14.879)" fill="#fff"/>
    <path id="Path_33" data-name="Path 33" d="M7,52.166h7.749V47H7Zm1.291-3.874h5.166v2.583H8.291Z" transform="translate(-2.126 -16.296)" fill="#fff"/>
  </g>
</svg>
